HIERARCHY
ROOT root
{
	OFFSET 0.000000 0.000000 0.000000
	CHANNELS 6 Xposition Yposition Zposition Zrotation Yrotation Xrotation
	JOINT lhip
	{
		OFFSET 0.058581 -0.082280 -0.017664
		CHANNELS 3 Zrotation Yrotation Xrotation
		JOINT lknee
		{
			OFFSET 0.043451 -0.386469 0.008037
			CHANNELS 3 Zrotation Yrotation Xrotation
			JOINT lankle
			{
				OFFSET -0.014790 -0.426874 -0.037428
				CHANNELS 3 Zrotation Yrotation Xrotation
				JOINT ltoe
				{
					OFFSET 0.041054 -0.060286 0.122042
					CHANNELS 3 Zrotation Yrotation Xrotation
					End Site
					{
						OFFSET 0.000000 0.000000 0.000000
					}
				}
			}
		}
	}
	JOINT rhip
	{
		OFFSET -0.060310 -0.090513 -0.013543
		CHANNELS 3 Zrotation Yrotation Xrotation
		JOINT rknee
		{
			OFFSET -0.043257 -0.383688 -0.004843
			CHANNELS 3 Zrotation Yrotation Xrotation
			JOINT rankle
			{
				OFFSET 0.019056 -0.420046 -0.034562
				CHANNELS 3 Zrotation Yrotation Xrotation
				JOINT rtoe
				{
					OFFSET -0.034840 -0.062106 0.130323
					CHANNELS 3 Zrotation Yrotation Xrotation
					End Site
					{
						OFFSET 0.000000 0.000000 0.000000
					}
				}
			}
		}
	}
	JOINT lowerback
	{
		OFFSET 0.004439 0.124404 -0.038385
		CHANNELS 3 Zrotation Yrotation Xrotation
		JOINT upperback
		{
			OFFSET 0.004488 0.137956 0.026820
			CHANNELS 3 Zrotation Yrotation Xrotation
			JOINT chest
			{
				OFFSET -0.002265 0.056032 0.002855
				CHANNELS 3 Zrotation Yrotation Xrotation
				JOINT lowerneck
				{
					OFFSET -0.013390 0.211636 -0.033468
					CHANNELS 3 Zrotation Yrotation Xrotation
					JOINT upperneck
					{
						OFFSET 0.010113 0.088937 0.050410
						CHANNELS 3 Zrotation Yrotation Xrotation
						End Site
						{
							OFFSET 0.000000 0.000000 0.000000
						}
					}
				}
				JOINT lclavicle
				{
					OFFSET 0.071702 0.114000 -0.018898
					CHANNELS 3 Zrotation Yrotation Xrotation
					JOINT lshoulder
					{
						OFFSET 0.122921 0.045205 -0.019046
						CHANNELS 3 Zrotation Yrotation Xrotation
						JOINT lelbow
						{
							OFFSET 0.255332 -0.015649 -0.022946
							CHANNELS 3 Zrotation Yrotation Xrotation
							JOINT lwrist
							{
								OFFSET 0.265709 0.012698 -0.007375
								CHANNELS 3 Zrotation Yrotation Xrotation
								End Site
								{
									OFFSET 0.000000 0.000000 0.000000
								}
							}
						}
					}
				}
				JOINT rclavicle
				{
					OFFSET -0.082954 0.112472 -0.023707
					CHANNELS 3 Zrotation Yrotation Xrotation
					JOINT rshoulder
					{
						OFFSET -0.113228 0.046853 -0.008472
						CHANNELS 3 Zrotation Yrotation Xrotation
						JOINT relbow
						{
							OFFSET -0.260127 -0.014369 -0.031269
							CHANNELS 3 Zrotation Yrotation Xrotation
							JOINT rwrist
							{
								OFFSET -0.269108 0.006794 -0.006027
								CHANNELS 3 Zrotation Yrotation Xrotation
								End Site
								{
									OFFSET 0.000000 0.000000 0.000000
								}
							}
						}
					}
				}
			}
		}
	}
}
MOTION
Frames: 11
Frame Time: 0.033333
0.043163 1.256368 0.997299 -9.208704 -1.435080 81.958695 -1.096654 2.891974 8.805829 1.048340 -4.631011 3.586657 3.412237 12.319559 -11.947157 0.000000 -0.000000 0.000000 -1.965357 -4.020610 8.503250 -2.573103 -1.130822 -0.887787 0.865557 -8.821924 -5.396907 0.000000 -0.000000 0.000000 -4.392628 4.042003 1.628075 -0.237888 -2.941331 16.275696 -2.499038 0.833710 -2.773585 3.339839 -14.282373 5.597961 10.647805 -16.226410 -5.355739 -30.637325 -5.858302 2.098434 -42.955887 -7.288883 9.727374 5.195166 -16.347972 -9.517691 -8.278800 -2.710060 4.110648 29.138816 13.415429 7.067506 52.273681 3.049577 14.131303 -7.883504 23.097038 -8.423821 6.134026 6.625984 -4.051964 
0.043564 1.256035 0.996991 -9.176684 -1.350050 81.955874 -1.005728 2.876231 8.768555 1.009514 -4.586575 3.676537 3.242520 12.262273 -12.016714 0.000000 -0.000000 0.000000 -1.888733 -3.998317 8.548370 -2.551584 -1.027102 -0.820703 1.293175 -8.928487 -6.684923 0.000000 -0.000000 0.000000 -4.217043 4.014575 1.752246 -0.415191 -2.899304 15.847691 -2.494210 0.835767 -2.437327 3.413756 -14.176934 5.857056 10.620444 -16.488546 -5.047078 -30.366896 -5.813231 2.127484 -43.274223 -7.075979 9.681619 5.426599 -16.781214 -9.234671 -8.082898 -2.663426 3.706804 29.264549 13.533610 7.228090 52.225610 3.030559 14.092723 -7.945130 23.038595 -8.314567 6.127801 6.577483 -4.016878 
0.044216 1.255981 0.996915 -9.023682 -1.294370 81.943220 -0.967009 2.883062 8.661409 0.977263 -4.672406 3.845346 3.157254 12.162500 -12.065177 0.000000 -0.000000 0.000000 -1.893296 -4.003502 8.577058 -2.464692 -0.963010 -0.705048 1.836661 -9.084738 -8.105253 0.000000 -0.000000 0.000000 -4.092882 3.969997 1.898192 -0.519328 -2.936517 15.739794 -2.485388 0.825841 -2.439352 3.355150 -13.959496 5.992367 10.544871 -16.443374 -4.940471 -30.406213 -5.771019 2.278288 -43.350582 -6.820199 9.630373 5.649278 -17.256739 -8.805487 -8.080764 -2.493328 3.814686 29.258189 13.633573 7.316545 52.235086 2.930546 14.001320 -7.910621 23.028394 -8.214526 6.402709 6.444575 -4.095216 
0.044870 1.255908 0.996861 -8.944022 -1.303572 82.005023 -1.007403 2.898350 8.576093 0.958210 -4.624552 3.807575 3.037519 12.145029 -11.955009 0.000000 -0.000000 0.000000 -1.912426 -3.831148 8.506823 -2.437500 -0.968500 -0.566188 2.587846 -9.244144 -9.615934 0.000000 -0.000000 0.000000 -4.147214 3.994364 1.882789 -0.533321 -2.920035 15.762411 -2.378847 0.837674 -2.436058 3.248758 -13.842913 6.065948 10.548893 -16.594249 -4.828923 -29.994745 -5.926300 2.333409 -43.877113 -6.770341 9.597831 5.716733 -17.479884 -9.069915 -7.951402 -2.742141 3.314347 29.155173 13.841080 7.535766 52.312068 2.918517 13.844506 -8.063640 23.004009 -8.484578 6.058552 6.539873 -4.058602 
0.045116 1.255918 0.996842 -8.890072 -1.300680 82.054065 -1.038428 2.870322 8.507809 0.968932 -4.674031 3.824977 3.054073 12.129529 -11.950079 0.000000 -0.000000 0.000000 -1.912495 -3.846506 8.454431 -2.457568 -0.986006 -0.570937 2.618164 -9.265998 -9.605100 0.000000 -0.000000 0.000000 -4.151054 4.006207 1.932881 -0.533282 -2.921408 15.692754 -2.374320 0.863156 -2.458294 3.255697 -13.875540 6.050492 10.629882 -16.613393 -4.873579 -29.984743 -5.928091 2.281580 -43.915558 -6.784430 9.651838 5.706102 -17.485834 -9.098480 -7.932647 -2.740207 3.283520 29.167349 13.819526 7.542456 52.316886 2.841338 13.841683 -8.098084 23.027034 -8.532905 6.067033 6.516772 -4.077842 
0.045410 1.255882 0.996807 -8.845832 -1.283373 82.125395 -1.064606 2.822829 8.430193 0.979930 -4.738149 3.856350 3.085355 12.110041 -11.948100 0.000000 -0.000000 0.000000 -1.885805 -3.879959 8.403602 -2.498142 -1.003149 -0.635118 2.595087 -9.287066 -9.565193 0.000000 -0.000000 0.000000 -4.159264 4.016716 2.043857 -0.555218 -2.906772 15.572196 -2.378541 0.933120 -2.598909 3.257983 -13.869339 6.060192 10.699448 -16.529681 -4.797581 -30.000869 -5.881585 2.231091 -43.949198 -6.770566 9.709118 5.793426 -17.598350 -9.133432 -7.883822 -2.732765 3.292590 29.208800 13.758773 7.632201 52.377772 2.736041 13.835287 -8.149768 23.039917 -8.560412 6.100858 6.548283 -4.097498 
0.045658 1.255866 0.996805 -8.809612 -1.288477 82.195865 -1.089732 2.783863 8.380950 0.970346 -4.768373 3.761753 3.087702 12.138270 -11.910145 0.000000 -0.000000 0.000000 -1.900948 -3.884726 8.317800 -2.509560 -1.025397 -0.582790 2.605680 -9.315399 -9.548054 0.000000 -0.000000 0.000000 -4.180425 4.022356 2.101016 -0.568394 -2.888182 15.453725 -2.383365 0.938135 -2.590088 3.258768 -13.955657 6.019539 10.732790 -16.590599 -4.721584 -29.946338 -5.907818 2.186810 -43.996629 -6.862093 9.779061 5.745461 -17.527656 -9.090562 -7.847363 -2.680606 3.251915 29.193087 13.758586 7.597814 52.448662 2.741732 13.899468 -8.066711 22.908823 -8.480018 6.207675 6.525797 -4.151830 
0.045900 1.255789 0.996824 -8.732382 -1.292251 82.203224 -1.109910 2.766961 8.393309 0.985900 -4.747726 3.691181 3.079657 12.147727 -11.891324 0.000000 -0.000000 0.000000 -1.925154 -3.888854 8.334647 -2.501075 -1.071592 -0.627309 2.646437 -9.317261 -9.503527 0.000000 -0.000000 0.000000 -4.217244 4.044425 2.089105 -0.583491 -2.873582 15.518560 -2.356410 0.911028 -2.631571 3.266934 -13.801328 5.949508 10.777473 -16.528151 -4.717165 -29.887490 -6.017370 2.258258 -44.071263 -6.968365 9.653167 5.797474 -17.570403 -9.108251 -7.800779 -2.745550 3.267940 29.220650 13.815953 7.718995 52.514519 2.775803 13.882064 -8.067892 22.905308 -8.250755 6.085362 6.631524 -3.863506 
0.046212 1.255779 0.996781 -8.613170 -1.283695 82.194014 -1.139175 2.734101 8.405458 1.002413 -4.837624 3.678735 3.074655 12.073461 -11.892526 0.000000 -0.000000 0.000000 -1.947572 -3.935707 8.337887 -2.489729 -1.130600 -0.619386 2.673982 -9.359949 -9.503683 0.000000 -0.000000 0.000000 -4.216294 4.050820 2.063138 -0.581039 -2.898884 15.585706 -2.351614 0.877092 -2.526874 3.250111 -13.819952 6.003686 10.841419 -16.603610 -4.917021 -29.831511 -6.152936 2.266125 -44.108556 -7.105762 9.559691 5.800950 -17.722415 -9.232779 -7.592930 -2.635494 3.242018 29.214861 13.906327 7.702634 52.528222 2.884282 13.857030 -8.060025 22.923800 -8.124683 5.773595 6.522834 -3.505017 
0.046404 1.255763 0.996791 -8.550807 -1.300678 82.206481 -1.174079 2.725253 8.395918 1.020607 -4.820485 3.626624 3.062325 12.060846 -11.865249 0.000000 -0.000000 0.000000 -1.970743 -3.942964 8.327805 -2.508687 -1.153645 -0.644527 2.637533 -9.369063 -9.486517 0.000000 -0.000000 0.000000 -4.244785 4.036651 2.105257 -0.613612 -2.899102 15.585800 -2.360192 0.899477 -2.556616 3.337538 -13.740974 5.906353 10.854752 -16.585861 -4.814478 -29.790673 -6.159107 2.260090 -44.101416 -7.150370 9.592587 5.859710 -18.046905 -9.156570 -7.434284 -2.665357 3.224590 29.272059 13.908532 7.763597 52.520025 2.967858 13.874007 -8.017953 23.022138 -8.081515 5.678680 6.475813 -3.467966 
0.046600 1.255618 0.996805 -8.496347 -1.299871 82.177323 -1.179867 2.711284 8.470776 1.005967 -4.845105 3.564152 3.075266 12.021947 -11.899713 0.000000 -0.000000 0.000000 -1.974568 -3.900862 8.363417 -2.511164 -1.176467 -0.670898 2.502831 -9.429160 -9.439665 0.000000 -0.000000 0.000000 -4.252704 4.040852 2.130364 -0.623732 -2.879047 15.594193 -2.349754 0.904385 -2.521204 3.324935 -13.773474 6.025715 10.837512 -16.634423 -4.829180 -29.789261 -6.230355 2.341852 -44.109362 -7.198696 9.589717 6.048747 -18.328668 -9.180192 -7.385405 -2.687980 3.238925 29.273693 13.985494 7.859115 52.531117 2.995647 13.863330 -8.080462 23.157896 -8.121907 5.683155 6.478749 -3.610034 
